<svg width="172.000000" height="172.000000" viewBox="0 0 172 172" fill="none" xmlns="http://www.w3.org/2000/svg" xmlns:xlink="http://www.w3.org/1999/xlink">
	<desc>
			Created with Pixso.
	</desc>
	<defs>
		<filter id="filter_31_327_dd" x="0.000000" y="0.000000" width="172.000000" height="172.000000" filterUnits="userSpaceOnUse" color-interpolation-filters="sRGB">
			<feFlood flood-opacity="0" result="BackgroundImageFix"/>
			<feColorMatrix in="SourceAlpha" type="matrix" values="0 0 0 0 0 0 0 0 0 0 0 0 0 0 0 0 0 0 127 0" result="hardAlpha"/>
			<feOffset dx="0" dy="10"/>
			<feGaussianBlur stdDeviation="6.66667"/>
			<feComposite in2="hardAlpha" operator="out" k2="-1" k3="1"/>
			<feColorMatrix type="matrix" values="0 0 0 0 0.75294 0 0 0 0 0.75294 0 0 0 0 0.75294 0 0 0 0.25 0"/>
			<feBlend mode="normal" in2="BackgroundImageFix" result="effect_dropShadow_1"/>
			<feBlend mode="normal" in="SourceGraphic" in2="effect_dropShadow_1" result="shape"/>
		</filter>
	</defs>
	<g filter="url(#filter_31_327_dd)">
		<circle id="Background" cx="86.000000" cy="76.000000" r="66.000000" fill="#FFFFFF" fill-opacity="1.000000"/>
		<path id="Vector" d="M103.433 89.2216L95.0449 81.9667C97.0645 79.6415 98.1543 76.8112 98.1514 73.9031C98.1514 66.4747 91.1641 60.4312 82.5752 60.4312C73.9873 60.4312 67 66.4747 67 73.9031C67 81.3314 73.9873 87.3749 82.5752 87.3749C85.9375 87.3781 89.21 86.4352 91.8984 84.6885L100.286 91.9434C100.711 92.2716 101.265 92.4469 101.834 92.4331C102.403 92.4193 102.944 92.2177 103.348 91.8693C103.75 91.521 103.983 91.0526 103.999 90.5602C104.015 90.0677 103.812 89.5887 103.433 89.2216ZM71.4502 73.9031C71.4502 71.9999 72.1025 70.1394 73.3252 68.5569C74.5479 66.9745 76.2852 65.7411 78.3184 65.0127C80.3506 64.2844 82.5879 64.0939 84.7461 64.4652C86.9043 64.8364 88.8867 65.7529 90.4424 67.0988C91.998 68.4445 93.0576 70.1591 93.4873 72.0258C93.916 73.8923 93.6963 75.8271 92.8545 77.5854C92.0117 79.3439 90.5859 80.8467 88.7568 81.9041C86.9268 82.9614 84.7764 83.5258 82.5752 83.5258C79.626 83.5227 76.7979 82.5079 74.7129 80.704C72.627 78.9 71.4541 76.4542 71.4502 73.9031Z" fill="#CDA274" fill-opacity="1.000000" fill-rule="nonzero"/>
	</g>
</svg>
