<svg width="225" height="23" viewBox="0 0 225 23" fill="none" xmlns="http://www.w3.org/2000/svg">
<path d="M10.1836 12.875L10.6758 9.64062H7.54688V7.53125C7.54688 6.61719 7.96875 5.77344 9.375 5.77344H10.8164V2.99609C10.8164 2.99609 9.51562 2.75 8.28516 2.75C5.71875 2.75 4.03125 4.33203 4.03125 7.14453V9.64062H1.14844V12.875H4.03125V20.75H7.54688V12.875H10.1836Z" fill="#292F36"/>
<path d="M82.1367 8.09375C82.8398 7.56641 83.4727 6.93359 83.9648 6.19531C83.332 6.47656 82.5938 6.6875 81.8555 6.75781C82.6289 6.30078 83.1914 5.59766 83.4727 4.71875C82.7695 5.14062 81.9609 5.45703 81.1523 5.63281C80.4492 4.89453 79.5 4.47266 78.4453 4.47266C76.4062 4.47266 74.7539 6.125 74.7539 8.16406C74.7539 8.44531 74.7891 8.72656 74.8594 9.00781C71.8008 8.83203 69.0586 7.35547 67.2305 5.14062C66.9141 5.66797 66.7383 6.30078 66.7383 7.00391C66.7383 8.26953 67.3711 9.39453 68.3906 10.0625C67.793 10.0273 67.1953 9.88672 66.7031 9.60547V9.64062C66.7031 11.4336 67.9688 12.9102 69.6562 13.2617C69.375 13.332 69.0234 13.4023 68.707 13.4023C68.4609 13.4023 68.25 13.3672 68.0039 13.332C68.4609 14.8086 69.832 15.8633 71.4492 15.8984C70.1836 16.8828 68.6016 17.4805 66.8789 17.4805C66.5625 17.4805 66.2812 17.4453 66 17.4102C67.6172 18.4648 69.5508 19.0625 71.6602 19.0625C78.4453 19.0625 82.1367 13.4727 82.1367 8.58594C82.1367 8.41016 82.1367 8.26953 82.1367 8.09375Z" fill="#292F36"/>
<path d="M141.641 18.5V7.98828H138.371V18.5H141.641ZM139.988 6.58203C141.043 6.58203 141.887 5.70312 141.887 4.64844C141.887 3.62891 141.043 2.78516 139.988 2.78516C138.969 2.78516 138.125 3.62891 138.125 4.64844C138.125 5.70312 138.969 6.58203 139.988 6.58203ZM153.84 18.5H153.875V12.7344C153.875 9.92188 153.242 7.74219 149.938 7.74219C148.355 7.74219 147.301 8.62109 146.844 9.42969H146.809V7.98828H143.68V18.5H146.949V13.2969C146.949 11.9258 147.195 10.625 148.883 10.625C150.57 10.625 150.605 12.1719 150.605 13.4023V18.5H153.84Z" fill="#292F36"/>
<path d="M216.5 7.60742C214.125 7.60742 212.232 9.53711 212.232 11.875C212.232 14.25 214.125 16.1426 216.5 16.1426C218.838 16.1426 220.768 14.25 220.768 11.875C220.768 9.53711 218.838 7.60742 216.5 7.60742ZM216.5 14.6582C214.979 14.6582 213.717 13.4336 213.717 11.875C213.717 10.3535 214.941 9.12891 216.5 9.12891C218.021 9.12891 219.246 10.3535 219.246 11.875C219.246 13.4336 218.021 14.6582 216.5 14.6582ZM221.918 7.45898C221.918 6.90234 221.473 6.45703 220.916 6.45703C220.359 6.45703 219.914 6.90234 219.914 7.45898C219.914 8.01562 220.359 8.46094 220.916 8.46094C221.473 8.46094 221.918 8.01562 221.918 7.45898ZM224.738 8.46094C224.664 7.125 224.367 5.9375 223.402 4.97266C222.438 4.00781 221.25 3.71094 219.914 3.63672C218.541 3.5625 214.422 3.5625 213.049 3.63672C211.713 3.71094 210.562 4.00781 209.561 4.97266C208.596 5.9375 208.299 7.125 208.225 8.46094C208.15 9.83398 208.15 13.9531 208.225 15.3262C208.299 16.6621 208.596 17.8125 209.561 18.8145C210.562 19.7793 211.713 20.0762 213.049 20.1504C214.422 20.2246 218.541 20.2246 219.914 20.1504C221.25 20.0762 222.438 19.7793 223.402 18.8145C224.367 17.8125 224.664 16.6621 224.738 15.3262C224.812 13.9531 224.812 9.83398 224.738 8.46094ZM222.957 16.7734C222.697 17.5156 222.104 18.0723 221.398 18.3691C220.285 18.8145 217.688 18.7031 216.5 18.7031C215.275 18.7031 212.678 18.8145 211.602 18.3691C210.859 18.0723 210.303 17.5156 210.006 16.7734C209.561 15.6973 209.672 13.0996 209.672 11.875C209.672 10.6875 209.561 8.08984 210.006 6.97656C210.303 6.27148 210.859 5.71484 211.602 5.41797C212.678 4.97266 215.275 5.08398 216.5 5.08398C217.688 5.08398 220.285 4.97266 221.398 5.41797C222.104 5.67773 222.66 6.27148 222.957 6.97656C223.402 8.08984 223.291 10.6875 223.291 11.875C223.291 13.0996 223.402 15.6973 222.957 16.7734Z" fill="#292F36"/>
</svg>
