<svg width="268.000000" height="52.000000" viewBox="0 0 268 52" fill="none" xmlns="http://www.w3.org/2000/svg" xmlns:xlink="http://www.w3.org/1999/xlink">
	<desc>
			Created with Pixso.
	</desc>
	<defs/>
	<circle id="Ellipse 4" cx="26.000000" cy="26.000000" r="26.000000" fill="#F4F0EC" fill-opacity="1.000000"/>
	<path id="01" d="M19.496 25.96C19.496 25.3627 19.5547 24.8133 19.672 24.312C19.7893 23.8107 19.9547 23.3787 20.168 23.016C20.392 22.6533 20.6587 22.376 20.968 22.184C21.2773 21.9813 21.6187 21.88 21.992 21.88C22.3867 21.88 22.7333 21.9813 23.032 22.184C23.3413 22.376 23.6027 22.6533 23.816 23.016C24.04 23.3787 24.2107 23.8107 24.328 24.312C24.4453 24.8133 24.504 25.3627 24.504 25.96C24.504 26.5573 24.4453 27.1067 24.328 27.608C24.2107 28.1093 24.04 28.5413 23.816 28.904C23.6027 29.2667 23.3413 29.5493 23.032 29.752C22.7333 29.944 22.3867 30.04 21.992 30.04C21.6187 30.04 21.2773 29.944 20.968 29.752C20.6587 29.5493 20.392 29.2667 20.168 28.904C19.9547 28.5413 19.7893 28.1093 19.672 27.608C19.5547 27.1067 19.496 26.5573 19.496 25.96ZM17.64 25.96C17.64 27.1227 17.8213 28.136 18.184 29C18.5573 29.864 19.0693 30.536 19.72 31.016C20.3813 31.496 21.1387 31.736 21.992 31.736C22.8667 31.736 23.6293 31.496 24.28 31.016C24.9413 30.536 25.4533 29.864 25.816 29C26.1787 28.136 26.36 27.1227 26.36 25.96C26.36 24.7973 26.1787 23.784 25.816 22.92C25.4533 22.056 24.9413 21.384 24.28 20.904C23.6293 20.424 22.8667 20.184 21.992 20.184C21.1387 20.184 20.3813 20.424 19.72 20.904C19.0693 21.384 18.5573 22.056 18.184 22.92C17.8213 23.784 17.64 24.7973 17.64 25.96ZM28.2 22.984L30.792 22.264L30.792 31.56L32.664 31.56L32.664 20.184L28.2 21.192L28.2 22.984Z" fill="#292F36" fill-opacity="1.000000" fill-rule="evenodd"/>
	<circle id="Ellipse 4" cx="98.000000" cy="26.000000" r="25.500000" stroke="#CDA274" stroke-opacity="1.000000" stroke-width="1.000000"/>
	<path id="02" d="M91.496 25.96C91.496 25.3627 91.5547 24.8133 91.672 24.312C91.7893 23.8107 91.9547 23.3787 92.168 23.016C92.392 22.6533 92.6587 22.376 92.968 22.184C93.2773 21.9813 93.6187 21.88 93.992 21.88C94.3867 21.88 94.7333 21.9813 95.032 22.184C95.3413 22.376 95.6027 22.6533 95.816 23.016C96.04 23.3787 96.2107 23.8107 96.328 24.312C96.4453 24.8133 96.504 25.3627 96.504 25.96C96.504 26.5573 96.4453 27.1067 96.328 27.608C96.2107 28.1093 96.04 28.5413 95.816 28.904C95.6027 29.2667 95.3413 29.5493 95.032 29.752C94.7333 29.944 94.3867 30.04 93.992 30.04C93.6187 30.04 93.2773 29.944 92.968 29.752C92.6587 29.5493 92.392 29.2667 92.168 28.904C91.9547 28.5413 91.7893 28.1093 91.672 27.608C91.5547 27.1067 91.496 26.5573 91.496 25.96ZM89.64 25.96C89.64 27.1227 89.8213 28.136 90.184 29C90.5573 29.864 91.0693 30.536 91.72 31.016C92.3813 31.496 93.1387 31.736 93.992 31.736C94.8667 31.736 95.6293 31.496 96.28 31.016C96.9413 30.536 97.4533 29.864 97.816 29C98.1787 28.136 98.36 27.1227 98.36 25.96C98.36 24.7973 98.1787 23.784 97.816 22.92C97.4533 22.056 96.9413 21.384 96.28 20.904C95.6293 20.424 94.8667 20.184 93.992 20.184C93.1387 20.184 92.3813 20.424 91.72 20.904C91.0693 21.384 90.5573 22.056 90.184 22.92C89.8213 23.784 89.64 24.7973 89.64 25.96ZM99.32 31.56L107.864 31.56L107.864 29.8L103 29.8L106.184 26.68C106.643 26.2533 107.011 25.768 107.288 25.224C107.576 24.68 107.72 24.1147 107.72 23.528C107.72 23.1547 107.64 22.7707 107.48 22.376C107.331 21.9813 107.096 21.6187 106.776 21.288C106.467 20.9573 106.072 20.6907 105.592 20.488C105.112 20.2747 104.547 20.168 103.896 20.168C103.043 20.168 102.317 20.3493 101.72 20.712C101.133 21.064 100.685 21.5547 100.376 22.184C100.077 22.8027 99.928 23.512 99.928 24.312L101.8 24.312C101.8 23.8213 101.88 23.3893 102.04 23.016C102.211 22.6427 102.451 22.36 102.76 22.168C103.069 21.9653 103.437 21.864 103.864 21.864C104.173 21.864 104.445 21.9173 104.68 22.024C104.915 22.12 105.112 22.2533 105.272 22.424C105.443 22.5947 105.565 22.7867 105.64 23C105.725 23.2027 105.768 23.4107 105.768 23.624C105.768 23.9227 105.72 24.2053 105.624 24.472C105.528 24.7387 105.384 25.0053 105.192 25.272C105 25.5387 104.771 25.816 104.504 26.104L99.32 31.56Z" fill="#292F36" fill-opacity="1.000000" fill-rule="evenodd"/>
	<circle id="Ellipse 4" cx="170.000000" cy="26.000000" r="25.500000" stroke="#CDA274" stroke-opacity="1.000000" stroke-width="1.000000"/>
	<path id="03" d="M163.496 25.96C163.496 25.3627 163.555 24.8133 163.672 24.312C163.789 23.8107 163.955 23.3787 164.168 23.016C164.392 22.6533 164.659 22.376 164.968 22.184C165.277 21.9813 165.619 21.88 165.992 21.88C166.387 21.88 166.733 21.9813 167.032 22.184C167.341 22.376 167.603 22.6533 167.816 23.016C168.04 23.3787 168.211 23.8107 168.328 24.312C168.445 24.8133 168.504 25.3627 168.504 25.96C168.504 26.5573 168.445 27.1067 168.328 27.608C168.211 28.1093 168.04 28.5413 167.816 28.904C167.603 29.2667 167.341 29.5493 167.032 29.752C166.733 29.944 166.387 30.04 165.992 30.04C165.619 30.04 165.277 29.944 164.968 29.752C164.659 29.5493 164.392 29.2667 164.168 28.904C163.955 28.5413 163.789 28.1093 163.672 27.608C163.555 27.1067 163.496 26.5573 163.496 25.96ZM161.64 25.96C161.64 27.1227 161.821 28.136 162.184 29C162.557 29.864 163.069 30.536 163.72 31.016C164.381 31.496 165.139 31.736 165.992 31.736C166.867 31.736 167.629 31.496 168.28 31.016C168.941 30.536 169.453 29.864 169.816 29C170.179 28.136 170.36 27.1227 170.36 25.96C170.36 24.7973 170.179 23.784 169.816 22.92C169.453 22.056 168.941 21.384 168.28 20.904C167.629 20.424 166.867 20.184 165.992 20.184C165.139 20.184 164.381 20.424 163.72 20.904C163.069 21.384 162.557 22.056 162.184 22.92C161.821 23.784 161.64 24.7973 161.64 25.96ZM175.192 26.072C175.981 26.072 176.68 25.9547 177.288 25.72C177.907 25.4853 178.392 25.1493 178.744 24.712C179.096 24.2747 179.272 23.7733 179.272 23.208C179.272 22.6533 179.133 22.152 178.856 21.704C178.589 21.2453 178.2 20.8773 177.688 20.6C177.176 20.3227 176.557 20.184 175.832 20.184C175.149 20.184 174.547 20.3227 174.024 20.6C173.501 20.8667 173.091 21.2347 172.792 21.704C172.504 22.1733 172.36 22.7173 172.36 23.336L174.136 23.336C174.136 22.888 174.296 22.52 174.616 22.232C174.947 21.9333 175.357 21.784 175.848 21.784C176.179 21.784 176.456 21.848 176.68 21.976C176.904 22.104 177.075 22.2853 177.192 22.52C177.309 22.744 177.368 23.0053 177.368 23.304C177.368 23.5387 177.315 23.768 177.208 23.992C177.112 24.2053 176.968 24.392 176.776 24.552C176.595 24.712 176.371 24.84 176.104 24.936C175.837 25.0213 175.533 25.064 175.192 25.064L175.192 26.072ZM175.752 31.752C176.52 31.752 177.192 31.6187 177.768 31.352C178.344 31.0853 178.792 30.712 179.112 30.232C179.432 29.752 179.592 29.1973 179.592 28.568C179.592 28.0027 179.48 27.5227 179.256 27.128C179.032 26.7227 178.717 26.3973 178.312 26.152C177.917 25.896 177.453 25.7093 176.92 25.592C176.387 25.464 175.811 25.4 175.192 25.4L175.192 26.472C175.565 26.472 175.907 26.5147 176.216 26.6C176.525 26.6853 176.787 26.808 177 26.968C177.224 27.128 177.395 27.3253 177.512 27.56C177.629 27.7947 177.688 28.0613 177.688 28.36C177.688 28.7333 177.608 29.0533 177.448 29.32C177.288 29.576 177.064 29.7733 176.776 29.912C176.499 30.0507 176.168 30.12 175.784 30.12C175.411 30.12 175.069 30.0507 174.76 29.912C174.451 29.7627 174.205 29.56 174.024 29.304C173.853 29.0373 173.768 28.7227 173.768 28.36L171.88 28.36C171.88 28.8187 171.971 29.256 172.152 29.672C172.333 30.0773 172.589 30.44 172.92 30.76C173.251 31.0693 173.656 31.3147 174.136 31.496C174.616 31.6667 175.155 31.752 175.752 31.752Z" fill="#292F36" fill-opacity="1.000000" fill-rule="evenodd"/>
	<circle id="Ellipse 4" cx="242.000000" cy="26.000000" r="25.500000" stroke="#CDA274" stroke-opacity="1.000000" stroke-width="1.000000"/>
	<path id="Vector" d="M239.058 32L245 25.3142L239.058 18.6287" stroke="#292F36" stroke-opacity="1.000000" stroke-width="2.000000" stroke-linejoin="round" stroke-linecap="round"/>
</svg>
