<svg width="22.962891" height="22.915833" viewBox="0 0 22.9629 22.9158" fill="none" xmlns="http://www.w3.org/2000/svg" xmlns:xlink="http://www.w3.org/1999/xlink">
	<desc>
			Created with Pixso.
	</desc>
	<defs/>
	<path id="Vector" d="M17.6777 14.94C16.4512 14.3221 16.3496 14.2717 15.3848 14.988C14.7422 15.466 14.3145 15.8931 13.5625 15.7325C12.8086 15.572 11.1738 14.6669 9.74023 13.2394C8.30859 11.8119 7.35156 10.1289 7.18945 9.37878C7.0293 8.62866 7.46289 8.20618 7.9375 7.56158C8.60352 6.65295 8.55469 6.50153 7.98242 5.2749C7.53906 4.32086 6.32617 2.39758 5.51562 1.60004C4.64844 0.743408 4.64844 0.894836 4.08789 1.12708C3.63281 1.31848 3.19727 1.55115 2.78516 1.82214C1.97656 2.3587 1.5293 2.80444 1.21484 3.4743C0.902344 4.14417 0.761719 5.71454 2.37891 8.65546C3.99805 11.5963 5.13477 13.1001 7.48633 15.4443C9.83594 17.7885 11.6445 19.049 14.2871 20.531C17.5566 22.3619 18.8105 22.005 19.4824 21.692C20.1543 21.3791 20.6016 20.9349 21.1387 20.1272C21.4121 19.7154 21.6445 19.2794 21.8359 18.8248C22.0684 18.2681 22.2207 18.2681 21.3613 17.4014C20.5605 16.5937 18.6191 15.415 17.6777 14.94Z" stroke="#CDA274" stroke-opacity="1.000000" stroke-width="2.000000"/>
</svg>
