<svg width="20.000000" height="21.000000" viewBox="0 0 20 21" fill="none" xmlns="http://www.w3.org/2000/svg" xmlns:xlink="http://www.w3.org/1999/xlink">
	<desc>
			Created with Pixso.
	</desc>
	<defs/>
	<path id="Vector" d="M19.4473 6.33099C18.6348 6.33606 18.7148 7.84393 17.7031 7.13251C17.3262 6.8689 17.0957 6.48572 16.623 6.36914C16.2109 6.2674 15.7891 6.37323 15.3809 6.44397C14.918 6.52435 14.3691 6.56049 14.0176 6.91321C13.6797 7.25262 13.5 7.70807 13.1387 8.04956C12.4395 8.71112 12.1445 9.43329 12.5957 10.3687C13.0312 11.2679 13.9414 11.7559 14.9238 11.6918C15.8887 11.6271 16.8906 11.0643 16.8633 12.4745C16.8535 12.9732 16.957 13.3193 17.1094 13.7828C17.25 14.2103 17.2402 14.6246 17.2734 15.0658C17.332 15.8903 17.4824 16.8144 17.8906 17.5427L18.6484 16.4658C18.7422 16.3325 18.9375 16.1457 18.9844 15.9885C19.0684 15.7101 18.9043 15.2317 18.8867 14.9197C18.8672 14.6078 18.877 14.2917 18.8301 13.9798C18.7617 13.5427 18.5059 13.133 18.4707 12.7009C18.4043 11.8964 18.5508 11.2542 17.9355 10.5814C17.3398 9.9325 16.4668 9.77679 15.6348 9.90857C15.2148 9.97473 13.5234 10.2465 14.2031 9.28113C14.3359 9.09131 14.5703 8.93555 14.7207 8.75488C14.8516 8.59766 14.9668 8.30859 15.1211 8.18597C15.2734 8.06329 15.9805 7.92236 16.1816 7.98492C16.3848 8.04755 16.5957 8.34119 16.7715 8.47144C17.0957 8.71716 17.4746 8.88062 17.875 8.94775C18.5664 9.04956 20.0117 8.64551 20 7.75391C19.998 7.32642 19.6035 6.73102 19.4473 6.33099ZM11.4473 13.6674C11.1777 12.5254 9.63477 12.1437 8.80273 11.5244C8.32617 11.1681 7.90039 10.618 7.27148 10.5732C6.98242 10.5524 6.74023 10.6155 6.45312 10.5406C6.18945 10.4725 5.98438 10.33 5.70312 10.3671C5.17969 10.4363 4.84961 10.9991 4.28711 10.9229C3.75391 10.8506 3.20312 10.2226 3.08203 9.71112C2.92578 9.05365 3.44336 8.84039 3.99609 8.78186C4.22852 8.75745 4.48828 8.73096 4.70898 8.81598C5.00195 8.92535 5.14062 9.21344 5.40234 9.35895C5.89453 9.63019 5.99414 9.19666 5.91992 8.75696C5.80664 8.09839 5.67578 7.82971 6.25977 7.37677C6.66406 7.06433 7.00977 6.83838 6.94531 6.27704C6.90625 5.94727 6.72656 5.79816 6.89453 5.46991C7.02148 5.22003 7.37109 4.99463 7.59766 4.84552C8.18359 4.46075 10.1094 4.48926 9.32227 3.41241C9.0918 3.09637 8.66406 2.53149 8.25977 2.45416C7.75391 2.35797 7.5293 2.9259 7.17773 3.17627C6.8125 3.4353 6.10352 3.72949 5.73828 3.32898C5.24805 2.79004 6.06445 2.61292 6.24414 2.23688C6.42578 1.86078 5.82617 1.14984 5.50586 0.969666L3.99609 2.67096C3.95312 2.95587 3.96875 3.2467 4.04102 3.52551C4.11328 3.80438 4.24219 4.06531 4.41992 4.2923C4.71875 4.6806 5.19727 4.8053 5.21875 5.33557C5.24023 5.84448 5.16016 6.10504 4.83008 6.46277C4.6875 6.61548 4.58594 6.83228 4.43945 6.97528C4.26172 7.14984 4.32812 7.09637 4.04883 7.14423C3.52539 7.23328 3.07812 7.37067 2.57227 7.51111C1.72852 7.74573 1.65039 6.35901 1.26562 5.81494L0 6.84247C-0.0136719 7.01086 0.208984 7.3208 0.267578 7.50403C0.613281 8.55084 1.31055 9.36047 1.76172 10.362C2.23438 11.4225 3.50781 11.1284 4.07031 12.0577C4.56836 12.8821 4.03711 13.9258 4.41016 14.7889C4.68164 15.4154 5.32031 15.5523 5.76172 16.0103C6.21289 16.4729 6.20312 17.106 6.27148 17.7081C6.34961 18.4161 6.47461 19.118 6.64844 19.8088C6.70898 20.0475 6.76562 20.363 6.92773 20.5599C7.03906 20.6953 7.42188 20.8118 7.26758 20.8566C7.48242 20.8923 7.86719 21.0948 8.04688 20.9462C8.2832 20.7508 8.2207 20.1492 8.26172 19.8775C8.38477 19.0684 8.78711 18.277 9.33008 17.6714C9.86719 17.074 10.6035 16.6694 11.0566 15.992C11.498 15.3315 11.6309 14.4404 11.4473 13.6674ZM9.75781 15.0068C9.45508 15.5518 8.7793 15.9167 8.34375 16.3498C8.22656 16.4673 7.97461 16.8745 7.82812 16.7864C7.72266 16.7233 7.68555 16.1951 7.64648 16.074C7.44531 15.4641 7.0625 14.9316 6.54883 14.5498C6.39062 14.4292 5.99805 14.2725 5.90625 14.1071C5.80664 13.9274 5.89648 13.5035 5.90039 13.308C5.90625 13.0231 5.77734 12.5493 5.84766 12.2903C5.92773 11.9915 5.77148 12.1717 6.03711 12.1127C6.17773 12.0811 6.75586 12.1834 6.93164 12.22C7.20898 12.278 7.36133 12.4516 7.58008 12.6271C8.1543 13.0908 8.78711 13.4495 9.43164 13.8047C9.92969 14.0826 10.0762 14.4343 9.75781 15.0068ZM6.23633 0.984985C6.47656 1.22058 6.70312 1.49945 7.06055 1.52289C7.39844 1.54578 7.7168 1.36157 8.01367 1.59308C8.3418 1.84753 8.57812 2.16968 9.01172 2.24908C9.43359 2.32593 9.87891 2.07861 9.98242 1.64551C10.084 1.23279 9.86719 0.783936 9.85352 0.36969C9.85352 0.312195 9.88477 0.0567017 9.84375 0.0134888C9.81445 -0.019104 9.57031 0.0175171 9.5332 0.0185547C9.25977 0.0266724 8.98438 0.0457153 8.71289 0.0755615C7.7168 0.183838 6.74414 0.434937 5.82031 0.821106C5.94141 0.906616 6.09766 0.940674 6.23633 0.984985ZM14.9355 3.84399C15.3652 3.84399 15.8008 3.65057 15.6621 3.15088C15.5469 2.73199 15.3477 2.27759 14.8652 2.50354C14.5586 2.64703 14.123 3.01245 14.0879 3.37476C14.0469 3.78595 14.6504 3.84399 14.9355 3.84399ZM14.5938 6.03076C15.0312 6.29486 15.6816 6.17072 16.0137 5.79358C16.2715 5.49841 16.4238 4.98596 16.8887 4.98645C17.0938 4.98602 17.291 5.06665 17.4355 5.21088C17.6289 5.41089 17.5898 5.59869 17.6309 5.84906C17.7227 6.41138 18.3223 5.8811 18.4785 5.66333C18.5801 5.5213 18.7168 5.31067 18.6719 5.12592C18.6289 4.95337 18.4277 4.76965 18.3398 4.61139C18.0801 4.15338 17.8652 3.62054 17.4766 3.25061C17.1016 2.89435 16.6406 2.93561 16.2852 3.30554C15.9922 3.6109 15.6543 3.85266 15.4551 4.22412C15.3145 4.48517 15.1562 4.60986 14.8711 4.67755C14.7148 4.71472 14.5352 4.72845 14.4043 4.83429C14.0371 5.12439 14.2461 5.82104 14.5938 6.03076Z" fill="#CDA274" fill-opacity="1.000000" fill-rule="nonzero"/>
</svg>
