<?xml version="1.0" standalone="no"?>
<!DOCTYPE svg PUBLIC "-//W3C//DTD SVG 20010904//EN"
 "http://www.w3.org/TR/2001/REC-SVG-20010904/DTD/svg10.dtd">
<svg version="1.0" xmlns="http://www.w3.org/2000/svg"
 width="1280.000000pt" height="1225.000000pt" viewBox="0 0 1280.000000 1225.000000"
 preserveAspectRatio="xMidYMid meet">
<metadata>
Created by potrace 1.15, written by Peter Selinger 2001-2017
</metadata>
<g transform="translate(0.000000,1225.000000) scale(0.100000,-0.100000)"
fill="#ff9800" stroke="none">
<path d="M5070 12160 l-515 -88 -450 -130 -450 -129 -293 -147 c-269 -134
-320 -164 -609 -358 -278 -185 -352 -240 -612 -457 l-296 -247 -317 -401
c-199 -251 -385 -499 -499 -664 -177 -258 -186 -273 -375 -652 -152 -304 -222
-456 -323 -710 l-129 -323 -86 -464 -85 -465 -16 -407 -15 -408 50 -521 51
-522 138 -466 c112 -375 171 -552 303 -907 l164 -440 218 -351 217 -352 285
-335 285 -335 315 -283 316 -283 401 -252 402 -252 425 -171 c419 -168 431
-172 897 -305 l472 -135 508 -84 508 -84 465 -16 465 -16 485 50 485 51 570
150 c536 142 592 159 940 285 l370 135 454 302 454 302 403 335 402 335 220
287 c211 277 228 302 487 738 l268 452 99 362 100 361 18 243 18 244 -80 144
c-45 79 -83 142 -86 140 -2 -3 -19 -117 -38 -253 -28 -202 -47 -298 -102 -513
l-68 -265 -179 -277 c-161 -248 -181 -274 -186 -250 -4 15 -13 102 -19 195 -9
107 -17 167 -24 167 -13 0 -217 -58 -222 -63 -2 -2 1 -51 6 -108 15 -153 59
-664 57 -665 -1 -1 -123 -114 -270 -252 -259 -242 -274 -259 -435 -468 l-166
-217 -311 -206 c-170 -114 -438 -285 -595 -381 -157 -95 -393 -243 -525 -328
l-240 -155 -262 -67 c-145 -37 -263 -66 -263 -64 0 1 27 79 60 172 33 94 60
176 60 182 0 7 -10 9 -27 6 -16 -3 -127 -19 -248 -36 -121 -16 -287 -39 -370
-50 -82 -11 -181 -25 -220 -30 -38 -5 -137 -19 -220 -30 -170 -24 -269 -37
-370 -49 -38 -5 -306 -31 -595 -56 l-525 -48 -345 -139 -345 -140 -85 5 c-79
4 -111 14 -470 144 -212 78 -484 172 -605 211 -121 39 -347 111 -503 162
l-284 91 -336 219 -337 219 -285 252 c-157 138 -466 402 -687 586 l-402 336
-254 406 c-241 386 -261 421 -405 726 -148 314 -153 327 -266 683 l-115 363
-46 292 c-26 161 -47 300 -48 311 -2 15 20 26 128 63 72 24 186 60 255 79 69
20 128 39 132 43 13 12 37 148 73 411 33 245 39 275 101 478 l66 216 -16 100
c-9 55 -18 101 -19 102 -1 1 -129 65 -284 143 -156 78 -283 147 -283 154 0 6
9 62 21 122 19 100 78 273 300 885 11 30 133 275 272 543 l252 488 238 302
c131 166 358 446 505 623 l267 320 351 285 352 284 413 183 c299 132 518 220
789 319 l375 136 540 88 c451 73 683 115 1320 238 l40 8 -35 6 c-41 8 -920 98
-935 96 -5 0 -242 -41 -525 -89z m-4470 -5234 l125 -33 3 -152 3 -152 -51
-167 c-27 -92 -65 -243 -84 -336 l-34 -168 -82 -83 c-46 -46 -91 -86 -101 -88
-22 -6 -26 24 -35 233 -6 147 -4 172 40 490 63 455 69 490 83 490 4 0 64 -15
133 -34z"/>
<path d="M7280 12197 c8 -8 90 -75 181 -150 l165 -135 455 -185 c250 -102 635
-253 857 -336 l403 -151 372 -237 371 -236 450 -417 c248 -230 544 -512 658
-626 l206 -209 165 -280 c120 -205 205 -366 315 -600 146 -308 156 -332 251
-636 l100 -315 34 -495 34 -494 -18 -310 -17 -310 85 -304 c64 -232 95 -368
132 -578 27 -151 50 -276 52 -278 2 -2 48 204 103 457 l98 461 34 436 34 436
-50 389 -51 388 -100 367 -100 366 -150 335 c-137 306 -172 373 -401 770
l-250 435 -487 488 -486 488 -355 254 -356 254 -394 181 c-516 236 -1101 460
-1441 549 -605 160 -876 232 -894 237 -18 5 -18 4 -5 -9z"/>
<path d="M5900 11658 c-96 -16 -353 -53 -570 -82 l-395 -51 -11 -58 c-7 -32
-15 -77 -18 -101 l-7 -43 308 68 c295 66 312 69 442 69 138 1 551 -30 551 -40
0 -3 -36 -49 -80 -102 l-80 -96 -117 34 c-100 28 -152 35 -336 50 l-217 17
-130 -48 c-72 -26 -128 -50 -126 -52 3 -3 91 -27 197 -53 126 -32 275 -60 427
-82 l234 -33 115 -98 c63 -55 118 -95 122 -91 10 12 234 655 229 659 -16 15
-332 165 -345 164 -10 0 -97 -14 -193 -31z"/>
<path d="M7920 11025 c0 -3 67 -80 148 -170 117 -129 183 -192 311 -294 89
-71 161 -133 159 -138 -2 -4 -113 -89 -248 -188 -242 -178 -246 -182 -427
-378 -100 -109 -281 -320 -402 -469 l-220 -271 26 -31 c14 -17 59 -70 100
-118 l74 -87 152 118 c84 65 267 193 407 283 140 90 320 210 400 267 167 117
150 122 170 -43 l12 -91 -47 -124 c-25 -69 -49 -130 -53 -137 -4 -6 -110 -123
-237 -258 l-230 -246 -120 -205 -120 -204 -202 -184 -201 -185 -201 -67 -200
-66 -50 -152 c-28 -84 -66 -219 -85 -302 -28 -125 -35 -145 -41 -120 -4 17
-27 102 -51 189 -43 155 -44 164 -44 307 l0 147 -134 33 -134 33 -209 -63
-208 -64 -262 -155 c-237 -141 -260 -158 -253 -177 6 -16 -12 -53 -86 -175
l-93 -155 0 -190 0 -190 133 -116 134 -116 167 -67 166 -67 32 27 c205 172
204 171 253 272 26 53 49 99 50 101 2 2 62 -34 135 -80 151 -95 151 -77 -2
-164 l-97 -55 -11 -82 c-7 -46 -15 -99 -18 -119 -4 -32 1 -43 64 -119 59 -73
82 -92 170 -143 l101 -58 21 -87 c12 -48 26 -104 32 -124 l10 -38 347 174
c335 167 357 177 599 255 l250 82 259 -1 259 -1 48 112 c26 61 46 114 44 116
-2 2 -175 -4 -383 -13 l-379 -17 -175 -70 c-96 -38 -294 -116 -439 -173 l-263
-103 -67 54 c-64 52 -68 57 -83 121 l-16 67 67 83 c62 78 67 88 84 168 l17 85
-66 133 c-64 129 -68 134 -133 180 -36 25 -90 63 -119 84 l-52 37 -103 -12
c-180 -21 -157 -8 -268 -156 -94 -125 -105 -136 -185 -184 l-85 -51 -122 61
c-67 34 -127 65 -133 70 -8 7 -6 41 6 124 17 111 21 121 84 232 63 110 65 117
50 135 -10 10 -15 20 -13 22 11 10 211 136 236 149 15 8 106 43 201 77 l172
63 99 -66 c109 -73 102 -61 121 -207 9 -62 25 -118 62 -205 44 -107 57 -127
116 -187 37 -38 72 -68 80 -68 7 0 62 14 120 31 l108 31 50 185 50 184 -17
147 c-9 81 -15 149 -13 151 2 3 56 12 119 21 l114 16 149 99 c146 98 150 101
208 189 248 378 454 659 648 886 l204 237 134 33 133 33 118 85 c109 77 118
86 113 111 -8 34 -96 529 -96 535 0 6 -174 124 -195 132 -8 3 -225 -117 -492
-271 -263 -153 -494 -286 -513 -297 -31 -17 -28 -13 19 32 643 615 648 619
918 820 l261 195 12 80 c6 44 14 97 17 117 l5 36 -68 20 c-38 11 -122 35 -186
52 -112 31 -128 39 -335 166 l-218 134 -112 0 c-62 0 -113 -2 -113 -5z"/>
<path d="M4384 10922 c-152 -60 -286 -122 -432 -201 l-212 -113 0 -136 0 -137
138 136 137 136 162 31 c146 28 183 40 364 115 169 71 214 94 284 148 46 35
84 66 84 69 1 5 -69 14 -264 35 -33 4 -80 -12 -261 -83z"/>
<path d="M6941 10670 l-114 -67 -68 -134 c-64 -128 -75 -144 -217 -301 -104
-115 -149 -173 -146 -185 2 -10 17 -85 33 -168 l30 -150 -16 -167 -17 -167
-40 30 c-99 71 -93 61 -129 223 l-33 148 -134 84 c-111 70 -136 82 -149 71 -9
-6 -54 -44 -101 -83 l-85 -71 -100 49 c-55 28 -101 51 -102 52 -1 1 -5 35 -9
77 l-6 75 96 275 c86 244 95 275 80 286 -13 9 -13 15 -4 33 6 12 10 23 8 25
-2 1 -39 24 -82 51 l-79 48 -45 -17 c-43 -15 -48 -15 -81 3 -35 17 -39 17
-206 -11 -93 -16 -356 -54 -584 -83 -227 -30 -415 -57 -417 -59 -6 -6 -36
-188 -32 -192 2 -3 137 25 299 61 l294 66 267 -4 c277 -5 298 -8 298 -48 0
-14 -55 -157 -64 -167 -2 -2 -40 9 -87 23 -64 19 -138 30 -309 44 l-225 20
-132 -48 c-73 -26 -133 -49 -133 -52 0 -15 444 -111 625 -136 110 -15 203 -30
206 -33 3 -3 2 -43 -4 -88 -9 -79 -8 -88 23 -200 l34 -118 80 -83 81 -83 155
-17 c157 -18 176 -17 357 12 l33 5 21 -72 c11 -40 34 -115 50 -168 l30 -97
150 -67 150 -67 117 67 118 66 51 157 52 157 16 245 c9 134 18 247 21 251 2 4
78 96 169 205 99 119 163 204 161 214 -3 8 -10 87 -17 175 -6 88 -15 163 -18
166 -3 4 -57 -24 -120 -61z"/>
<path d="M3900 10247 c-74 -66 -304 -266 -510 -444 -374 -323 -375 -325 -535
-518 l-160 -195 -48 -148 -49 -149 50 -100 51 -100 -19 -144 c-13 -100 -39
-218 -84 -387 l-65 -242 67 -253 68 -253 114 -131 c63 -72 116 -129 117 -128
2 1 -5 144 -14 317 l-16 316 32 197 c25 147 45 232 82 343 l49 146 0 162 0
162 -65 81 -66 81 187 287 188 288 197 147 198 147 198 231 c109 127 200 236
202 242 4 13 -20 150 -28 159 -3 4 -67 -48 -141 -114z"/>
<path d="M3462 7241 c-95 -27 -175 -50 -177 -53 -3 -3 -33 -81 -67 -174 -33
-93 -64 -173 -68 -177 -4 -4 -28 20 -54 53 -53 67 -53 67 -171 47 l-70 -12 -3
-71 -3 -70 159 -211 c145 -193 364 -453 380 -453 4 0 54 14 112 30 58 17 106
30 107 30 14 0 -31 162 -108 391 -42 126 -79 298 -79 368 0 14 20 27 80 51 45
18 82 31 84 29 2 -2 34 -64 71 -138 36 -74 111 -200 165 -281 97 -145 100
-148 178 -194 43 -25 82 -46 85 -46 4 0 7 34 7 76 0 53 -10 116 -35 215 -30
119 -48 166 -119 307 l-84 167 -100 83 c-55 45 -104 82 -109 81 -4 0 -86 -22
-181 -48z"/>
<path d="M11380 6680 c-311 -142 -571 -262 -578 -267 -9 -6 -5 -64 22 -275 31
-250 33 -272 20 -340 -7 -40 -45 -252 -84 -470 -58 -327 -95 -518 -134 -680
-3 -12 37 -45 143 -119 80 -56 269 -192 419 -302 l273 -199 82 12 c130 20 126
11 49 126 -37 56 -125 167 -197 248 l-130 147 -145 80 c-80 45 -149 84 -153
89 -17 15 91 670 163 992 82 370 126 549 137 559 4 4 96 65 203 136 185 122
199 130 280 147 47 10 115 25 153 33 l67 15 0 164 c0 125 -3 164 -12 163 -7 0
-267 -116 -578 -259z"/>
<path d="M4427 6192 l-117 -117 242 -89 c134 -49 443 -163 688 -252 245 -90
444 -167 443 -171 -1 -4 -54 -126 -118 -271 -155 -354 -372 -950 -414 -1140
-17 -78 -31 -147 -31 -152 0 -5 52 -54 115 -108 101 -87 147 -117 392 -255
153 -85 349 -190 436 -233 l157 -79 0 -449 0 -450 82 -198 c46 -109 85 -198
88 -198 3 0 20 73 37 163 l32 162 -16 250 -17 250 50 150 50 150 -33 164 c-18
91 -36 168 -40 172 -5 3 -89 43 -188 88 -168 76 -190 89 -332 200 -117 91
-193 141 -332 216 -100 54 -181 101 -181 104 0 31 203 837 213 850 151 177
317 383 317 392 0 7 -21 84 -47 171 l-47 160 -250 150 -250 150 -278 104
c-228 85 -342 135 -528 231 -3 2 -58 -50 -123 -115z"/>
<path d="M9201 6198 c-7 -62 -14 -138 -18 -169 l-5 -56 111 -48 c62 -26 167
-64 234 -84 l122 -37 12 -134 c22 -237 20 -389 -5 -542 -12 -76 -31 -200 -42
-275 -12 -76 -30 -196 -41 -267 -11 -71 -35 -286 -55 -478 l-35 -349 -116
-134 -116 -133 -202 -84 -201 -84 -175 32 c-95 18 -179 33 -185 33 -6 1 -16
-32 -23 -71 -7 -40 -14 -85 -17 -100 l-6 -28 406 0 406 0 200 100 c195 98 199
100 209 137 82 313 91 361 126 705 19 189 41 384 50 433 9 50 27 153 40 230
14 77 34 192 45 255 29 160 37 249 50 530 6 135 13 254 15 266 3 15 -21 58
-82 143 l-86 121 -218 0 -218 0 -77 93 c-43 50 -81 96 -84 100 -4 5 -13 -43
-19 -105z"/>
<path d="M7813 2962 c-68 -86 -165 -206 -217 -267 -88 -101 -100 -122 -162
-260 l-67 -150 -19 -172 c-18 -173 -18 -173 -67 -270 l-49 -98 -128 -95 c-70
-52 -175 -134 -233 -182 -58 -49 -108 -85 -111 -80 -4 4 -35 94 -70 200 -62
186 -64 192 -84 179 -12 -7 -49 -30 -83 -51 -38 -22 -63 -44 -63 -54 0 -9 7
-109 15 -222 8 -113 15 -218 15 -235 0 -27 9 -35 77 -75 43 -25 83 -46 89 -48
7 -2 94 57 195 130 101 74 289 201 416 283 l233 149 101 152 100 152 -16 150
-17 151 82 148 c61 111 116 190 216 315 74 92 134 170 134 174 0 5 -160 234
-164 234 0 0 -56 -71 -123 -158z"/>
</g>
</svg>
