<svg width="26.931641" height="27.000000" viewBox="0 0 26.9316 27" fill="none" xmlns="http://www.w3.org/2000/svg" xmlns:xlink="http://www.w3.org/1999/xlink">
	<desc>
			Created with Pixso.
	</desc>
	<defs/>
	<path id="Vector" d="M26.5195 24.2898L20.4141 18.1691C21.8848 16.2073 22.6777 13.8195 22.6758 11.3659C22.6758 5.09879 17.5898 0 11.3379 0C5.08594 0 0 5.09879 0 11.3659C0 17.6331 5.08594 22.7318 11.3379 22.7318C13.7852 22.7345 16.166 21.939 18.123 20.4654L24.2285 26.5862C24.5391 26.8632 24.9414 27.011 25.3555 26.9994C25.7695 26.9877 26.1641 26.8175 26.457 26.5237C26.75 26.2298 26.9199 25.8346 26.9316 25.4192C26.9434 25.0038 26.7969 24.5997 26.5195 24.2898ZM3.24023 11.3659C3.24023 9.76022 3.71484 8.19061 4.60352 6.85553C5.49414 5.52045 6.75781 4.47986 8.23828 3.86539C9.71875 3.25092 11.3457 3.09015 12.918 3.40341C14.4883 3.71664 15.9316 4.48987 17.0645 5.62527C18.1973 6.76065 18.9668 8.20724 19.2793 9.78207C19.5918 11.3569 19.4316 12.9893 18.8184 14.4727C18.207 15.9562 17.168 17.2242 15.8359 18.1162C14.5059 19.0083 12.9395 19.4844 11.3379 19.4844C9.19141 19.4818 7.13281 18.6257 5.61328 17.1037C4.0957 15.5818 3.24219 13.5183 3.24023 11.3659Z" fill="#CDA274" fill-opacity="1.000000" fill-rule="nonzero"/>
</svg>
