<svg width="150.058594" height="21.000000" viewBox="0 0 150.059 21" fill="none" xmlns="http://www.w3.org/2000/svg" xmlns:xlink="http://www.w3.org/1999/xlink">
	<desc>
			Created with Pixso.
	</desc>
	<defs/>
	<path id="" d="M9.03427 12.108L9.52645 8.87366L6.39755 8.87366L6.39755 6.76428C6.39755 5.85022 6.81942 5.00647 8.22567 5.00647L9.66708 5.00647L9.66708 2.22913C9.66708 2.22913 8.3663 1.98303 7.13583 1.98303C4.56942 1.98303 2.88192 3.56506 2.88192 6.37756L2.88192 8.87366L-0.000890732 8.87366L-0.000890732 12.108L2.88192 12.108L2.88192 19.983L6.39755 19.983L6.39755 12.108L9.03427 12.108Z" fill="#292F36" fill-opacity="1.000000" fill-rule="evenodd"/>
	<path id="" d="M56.858 7.32678C57.5612 6.79944 58.194 6.16663 58.6862 5.42834C58.0534 5.70959 57.3151 5.92053 56.5768 5.99084C57.3502 5.53381 57.9127 4.83069 58.194 3.95178C57.4909 4.37366 56.6823 4.69006 55.8737 4.86584C55.1705 4.12756 54.2213 3.70569 53.1666 3.70569C51.1276 3.70569 49.4752 5.35803 49.4752 7.39709C49.4752 7.67834 49.5104 7.95959 49.5807 8.24084C46.5221 8.06506 43.7799 6.5885 41.9518 4.37366C41.6354 4.901 41.4596 5.53381 41.4596 6.23694C41.4596 7.50256 42.0924 8.62756 43.1119 9.29553C42.5143 9.26038 41.9166 9.11975 41.4244 8.8385L41.4244 8.87366C41.4244 10.6666 42.6901 12.1432 44.3776 12.4948C44.0963 12.5651 43.7448 12.6354 43.4284 12.6354C43.1823 12.6354 42.9713 12.6002 42.7252 12.5651C43.1823 14.0416 44.5534 15.0963 46.1705 15.1315C44.9049 16.1158 43.3229 16.7135 41.6002 16.7135C41.2838 16.7135 41.0026 16.6783 40.7213 16.6432C42.3385 17.6979 44.2721 18.2955 46.3815 18.2955C53.1666 18.2955 56.858 12.7057 56.858 7.81897C56.858 7.64319 56.858 7.50256 56.858 7.32678Z" fill="#292F36" fill-opacity="1.000000" fill-rule="evenodd"/>
	<path id="" d="M91.5496 17.733L91.5496 7.22131L88.2801 7.22131L88.2801 17.733L91.5496 17.733ZM89.8972 5.81506C90.9519 5.81506 91.7957 4.93616 91.7957 3.88147C91.7957 2.86194 90.9519 2.01819 89.8972 2.01819C88.8777 2.01819 88.034 2.86194 88.034 3.88147C88.034 4.93616 88.8777 5.81506 89.8972 5.81506ZM103.749 17.733L103.784 17.733L103.784 11.9674C103.784 9.15491 103.151 6.97522 99.8465 6.97522C98.2644 6.97522 97.2097 7.85413 96.7527 8.66272L96.7176 8.66272L96.7176 7.22131L93.5887 7.22131L93.5887 17.733L96.8582 17.733L96.8582 12.5299C96.8582 11.1588 97.1043 9.85803 98.7918 9.85803C100.479 9.85803 100.514 11.4049 100.514 12.6354L100.514 17.733L103.749 17.733Z" fill="#292F36" fill-opacity="1.000000" fill-rule="evenodd"/>
	<path id="" d="M141.765 6.73743C139.39 6.73743 137.498 8.66711 137.498 11.005C137.498 13.38 139.39 15.2726 141.765 15.2726C144.103 15.2726 146.033 13.38 146.033 11.005C146.033 8.66711 144.103 6.73743 141.765 6.73743ZM141.765 13.7882C140.244 13.7882 138.982 12.5636 138.982 11.005C138.982 9.48352 140.207 8.25891 141.765 8.25891C143.287 8.25891 144.511 9.48352 144.511 11.005C144.511 12.5636 143.287 13.7882 141.765 13.7882ZM147.183 6.58899C147.183 6.03235 146.738 5.58704 146.181 5.58704C145.625 5.58704 145.179 6.03235 145.179 6.58899C145.179 7.14563 145.625 7.59094 146.181 7.59094C146.738 7.59094 147.183 7.14563 147.183 6.58899ZM150.004 7.59094C149.929 6.255 149.633 5.0675 148.668 4.10266C147.703 3.13782 146.515 2.84094 145.179 2.76672C143.806 2.6925 139.687 2.6925 138.314 2.76672C136.978 2.84094 135.828 3.13782 134.826 4.10266C133.861 5.0675 133.564 6.255 133.49 7.59094C133.416 8.96399 133.416 13.0831 133.49 14.4562C133.564 15.7921 133.861 16.9425 134.826 17.9445C135.828 18.9093 136.978 19.2062 138.314 19.2804C139.687 19.3546 143.806 19.3546 145.179 19.2804C146.515 19.2062 147.703 18.9093 148.668 17.9445C149.633 16.9425 149.929 15.7921 150.004 14.4562C150.078 13.0831 150.078 8.96399 150.004 7.59094ZM148.222 15.9034C147.963 16.6456 147.369 17.2023 146.664 17.4991C145.55 17.9445 142.953 17.8331 141.765 17.8331C140.541 17.8331 137.943 17.9445 136.867 17.4991C136.125 17.2023 135.568 16.6456 135.271 15.9034C134.826 14.8273 134.937 12.2296 134.937 11.005C134.937 9.8175 134.826 7.21985 135.271 6.10657C135.568 5.40149 136.125 4.84485 136.867 4.54797C137.943 4.10266 140.541 4.21399 141.765 4.21399C142.953 4.21399 145.55 4.10266 146.664 4.54797C147.369 4.80774 147.925 5.40149 148.222 6.10657C148.668 7.21985 148.556 9.8175 148.556 11.005C148.556 12.2296 148.668 14.8273 148.222 15.9034Z" fill="#292F36" fill-opacity="1.000000" fill-rule="evenodd"/>
</svg>
