<svg width="17.964844" height="14.589844" viewBox="0 0 17.9648 14.5898" fill="none" xmlns="http://www.w3.org/2000/svg" xmlns:xlink="http://www.w3.org/1999/xlink">
	<desc>
			Created with Pixso.
	</desc>
	<defs/>
	<path id="" d="M16.1373 3.62109C16.8405 3.09375 17.4733 2.46094 17.9655 1.72266C17.3326 2.00391 16.5944 2.21484 15.8561 2.28516C16.6295 1.82812 17.192 1.125 17.4733 0.246094C16.7701 0.667969 15.9616 0.984375 15.153 1.16016C14.4498 0.421875 13.5006 0 12.4459 0C10.4069 0 8.75452 1.65234 8.75452 3.69141C8.75452 3.97266 8.78968 4.25391 8.85999 4.53516C5.8014 4.35938 3.05921 2.88281 1.23109 0.667969C0.91468 1.19531 0.738899 1.82812 0.738899 2.53125C0.738899 3.79688 1.37171 4.92188 2.39124 5.58984C1.79359 5.55469 1.19593 5.41406 0.703743 5.13281L0.703743 5.16797C0.703743 6.96094 1.96937 8.4375 3.65687 8.78906C3.37562 8.85938 3.02406 8.92969 2.70765 8.92969C2.46156 8.92969 2.25062 8.89453 2.00452 8.85938C2.46156 10.3359 3.83265 11.3906 5.44984 11.4258C4.18421 12.4102 2.60218 13.0078 0.879524 13.0078C0.563118 13.0078 0.281868 12.9727 0.000617981 12.9375C1.61781 13.9922 3.5514 14.5898 5.66077 14.5898C12.4459 14.5898 16.1373 9 16.1373 4.11328C16.1373 3.9375 16.1373 3.79688 16.1373 3.62109Z" fill="#292F36" fill-opacity="1.000000" fill-rule="evenodd"/>
</svg>
